# xmcd
#
# Track frame offsets:
#	150
#	13440
#	25371
#	37289
#	50592
#	63802
#	74814
#	89227
#	101528
#	115406
#	126549
#	140496
#	153660
#	166354
#	180146
#	191344
#
# Disc length: 2733 seconds
#
# Revision: 0
# Processed by: cddbd v1.5.2PL0 Copyright (c) Steve Scherf et al.
# Submitted via: EasyCDDAExtractor 9.0.0.1
#
DISCID=f40aab10
DTITLE=Sam and Dave - The Unforgettable Music Of
DYEAR=2003
DGENRE=Soul
TTITLE0=Soul Man
TTITLE1=Hold On, I'm Coming
TTITLE2=Soul Sister Brown Sugar
TTITLE3=Sittin' On The Dock Of The Bay
TTITLE4=I Thank You
TTITLE5=Bring It On Home To Me
TTITLE6=You Send Me
TTITLE7=You Don't Know Like I Know
TTITLE8=Don't Pull Your Love Out On Me Baby
TTITLE9=Another Saturday Night
TTITLE10=Summertime
TTITLE11=You Got Me Hummin'
TTITLE12=Said I Wasn't Gonna Tell
TTITLE13=Wonderful World
TTITLE14=You Don't Know What You Mean To Me
TTITLE15=Gimme Some Lovin'
EXTD=
EXTT0=
EXTT1=
EXTT2=
EXTT3=
EXTT4=
EXTT5=
EXTT6=
EXTT7=
EXTT8=
EXTT9=
EXTT10=
EXTT11=
EXTT12=
EXTT13=
EXTT14=
EXTT15=
PLAYORDER=
